<svg xmlns="http://www.w3.org/2000/svg" width="800" height="800" viewBox="0 0 800 800"><g id="Layer_2" data-name="Layer 2"><g id="Layer_1-2" data-name="Layer 1"><path id="lem-logo-white" d="M441.1,180.85V.1H353.53V93.16A87.6,87.6,0,0,0,441.1,180.85ZM119.53,443.44V799.65H207.1V355.75A87.6,87.6,0,0,0,119.53,443.44Zm234,146V800H441.1V501.7A87.6,87.6,0,0,0,353.53,589.39ZM0,799.65H87.57V.3H0Zm239.64.35h87.58V0H239.64ZM441,353.12V265.43H353.43A87.6,87.6,0,0,0,441,353.12ZM712.43,0V800H800V88.88C800,40,760.36,0,712.43,0ZM592.9,799.65h87.57V0H592.9ZM473.37,800H561V0H473.37Z" fill="#fff"/></g></g></svg>