<svg xmlns="http://www.w3.org/2000/svg" width="960" height="960" viewBox="0 0 960 960"><g id="Layer_2" data-name="Layer 2"><g id="Layer_1-2" data-name="Layer 1"><rect id="border" width="960" height="960" fill="#0071bc"/><path id="lem-logo-white" d="M521.1,279.2V98.45H433.53v93.06A87.6,87.6,0,0,0,521.1,279.2ZM199.53,541.79V898H287.1V454.1A87.6,87.6,0,0,0,199.53,541.79Zm234,146V898.35H521.1V600.05A87.6,87.6,0,0,0,433.53,687.74ZM80,898h87.57V98.65H80Zm239.64.35h87.58v-800H319.64ZM521,451.47V363.78H433.43A87.6,87.6,0,0,0,521,451.47ZM792.43,98.35v800H880V187.23C880,138.32,840.36,98.35,792.43,98.35ZM672.9,898h87.57V98.35H672.9Zm-119.53.35H641v-800H553.37Z" fill="#fff"/></g></g></svg>